<mxfile host="app.diagrams.net" modified="2021-02-25T09:49:34.459Z" agent="5.0 (Macintosh; Intel Mac OS X 10_14_6) AppleWebKit/537.36 (KHTML, like Gecko) Chrome/88.0.4324.182 Safari/537.36" etag="xLxBXRCQ5rh7pf-4_uEI" version="14.4.2" type="github">
  <diagram id="dYx4Rj2eQahYWP09Eri4" name="Page-1">
    <mxGraphModel dx="1773" dy="1708" grid="1" gridSize="10" guides="1" tooltips="1" connect="1" arrows="1" fold="1" page="1" pageScale="1" pageWidth="827" pageHeight="1169" math="0" shadow="0">
      <root>
        <mxCell id="0" />
        <mxCell id="1" parent="0" />
        <mxCell id="_T7ckmJpyFO9h24dA1C--39" value="" style="group" vertex="1" connectable="0" parent="1">
          <mxGeometry x="380" y="-1130" width="120" height="270" as="geometry" />
        </mxCell>
        <mxCell id="_T7ckmJpyFO9h24dA1C--15" value="Map" style="rounded=1;whiteSpace=wrap;html=1;fillColor=#dae8fc;strokeColor=#6c8ebf;" vertex="1" parent="_T7ckmJpyFO9h24dA1C--39">
          <mxGeometry width="120" height="60" as="geometry" />
        </mxCell>
        <mxCell id="_T7ckmJpyFO9h24dA1C--16" value="AbstractMap" style="whiteSpace=wrap;html=1;rounded=1;strokeColor=#d79b00;fillColor=#ffe6cc;" vertex="1" parent="_T7ckmJpyFO9h24dA1C--39">
          <mxGeometry y="100" width="120" height="60" as="geometry" />
        </mxCell>
        <mxCell id="_T7ckmJpyFO9h24dA1C--17" value="" style="edgeStyle=orthogonalEdgeStyle;rounded=0;orthogonalLoop=1;jettySize=auto;html=1;" edge="1" parent="_T7ckmJpyFO9h24dA1C--39" source="_T7ckmJpyFO9h24dA1C--15" target="_T7ckmJpyFO9h24dA1C--16">
          <mxGeometry relative="1" as="geometry" />
        </mxCell>
        <mxCell id="_T7ckmJpyFO9h24dA1C--18" value="HashMap" style="whiteSpace=wrap;html=1;rounded=1;strokeColor=#b85450;fillColor=#f8cecc;" vertex="1" parent="_T7ckmJpyFO9h24dA1C--39">
          <mxGeometry y="210" width="120" height="60" as="geometry" />
        </mxCell>
        <mxCell id="_T7ckmJpyFO9h24dA1C--19" value="" style="edgeStyle=orthogonalEdgeStyle;rounded=0;orthogonalLoop=1;jettySize=auto;html=1;" edge="1" parent="_T7ckmJpyFO9h24dA1C--39" source="_T7ckmJpyFO9h24dA1C--16" target="_T7ckmJpyFO9h24dA1C--18">
          <mxGeometry relative="1" as="geometry" />
        </mxCell>
        <mxCell id="_T7ckmJpyFO9h24dA1C--42" style="edgeStyle=orthogonalEdgeStyle;rounded=0;orthogonalLoop=1;jettySize=auto;html=1;exitX=0.5;exitY=1;exitDx=0;exitDy=0;entryX=0.5;entryY=0;entryDx=0;entryDy=0;" edge="1" parent="1" source="_T7ckmJpyFO9h24dA1C--40" target="_T7ckmJpyFO9h24dA1C--2">
          <mxGeometry relative="1" as="geometry" />
        </mxCell>
        <mxCell id="_T7ckmJpyFO9h24dA1C--40" value="Iterable" style="whiteSpace=wrap;html=1;rounded=1;fontStyle=0;strokeColor=#6c8ebf;fillColor=#dae8fc;" vertex="1" parent="1">
          <mxGeometry x="-80" y="-1150" width="120" height="60" as="geometry" />
        </mxCell>
        <mxCell id="_T7ckmJpyFO9h24dA1C--35" style="edgeStyle=orthogonalEdgeStyle;rounded=0;orthogonalLoop=1;jettySize=auto;html=1;exitX=0.5;exitY=1;exitDx=0;exitDy=0;fillColor=#ffe6cc;strokeColor=#d79b00;entryX=0;entryY=0.5;entryDx=0;entryDy=0;" edge="1" parent="1" source="_T7ckmJpyFO9h24dA1C--20" target="_T7ckmJpyFO9h24dA1C--25">
          <mxGeometry x="-320" y="-1050" as="geometry">
            <mxPoint x="150" y="-721" as="targetPoint" />
            <Array as="points">
              <mxPoint x="60" y="-721" />
            </Array>
          </mxGeometry>
        </mxCell>
        <mxCell id="_T7ckmJpyFO9h24dA1C--20" value="AbstractCollection" style="whiteSpace=wrap;html=1;rounded=1;fontStyle=0;strokeColor=#d79b00;fillColor=#ffe6cc;" vertex="1" parent="1">
          <mxGeometry y="-880" width="120" height="60" as="geometry" />
        </mxCell>
        <mxCell id="_T7ckmJpyFO9h24dA1C--21" value="" style="edgeStyle=orthogonalEdgeStyle;rounded=0;orthogonalLoop=1;jettySize=auto;html=1;" edge="1" parent="1" source="_T7ckmJpyFO9h24dA1C--2" target="_T7ckmJpyFO9h24dA1C--20">
          <mxGeometry x="-320" y="-1050" as="geometry">
            <Array as="points">
              <mxPoint x="-20" y="-920" />
              <mxPoint x="60" y="-920" />
            </Array>
          </mxGeometry>
        </mxCell>
        <mxCell id="_T7ckmJpyFO9h24dA1C--56" value="" style="edgeStyle=orthogonalEdgeStyle;rounded=0;orthogonalLoop=1;jettySize=auto;html=1;fillColor=#f8cecc;strokeColor=#b85450;" edge="1" parent="1" source="_T7ckmJpyFO9h24dA1C--22" target="_T7ckmJpyFO9h24dA1C--55">
          <mxGeometry relative="1" as="geometry">
            <Array as="points">
              <mxPoint x="-100" y="-670" />
              <mxPoint x="70" y="-670" />
            </Array>
          </mxGeometry>
        </mxCell>
        <mxCell id="_T7ckmJpyFO9h24dA1C--57" style="edgeStyle=orthogonalEdgeStyle;rounded=0;orthogonalLoop=1;jettySize=auto;html=1;entryX=0.5;entryY=0;entryDx=0;entryDy=0;fillColor=#f8cecc;strokeColor=#b85450;" edge="1" parent="1" source="_T7ckmJpyFO9h24dA1C--22" target="_T7ckmJpyFO9h24dA1C--58">
          <mxGeometry relative="1" as="geometry">
            <mxPoint x="-100" y="-620" as="targetPoint" />
          </mxGeometry>
        </mxCell>
        <mxCell id="_T7ckmJpyFO9h24dA1C--22" value="AbstractSet" style="whiteSpace=wrap;html=1;rounded=1;fontStyle=0;strokeColor=#d79b00;fillColor=#ffe6cc;" vertex="1" parent="1">
          <mxGeometry x="-160" y="-751" width="120" height="60" as="geometry" />
        </mxCell>
        <mxCell id="_T7ckmJpyFO9h24dA1C--37" style="edgeStyle=orthogonalEdgeStyle;rounded=0;orthogonalLoop=1;jettySize=auto;html=1;exitX=0.5;exitY=1;exitDx=0;exitDy=0;entryX=1;entryY=0.5;entryDx=0;entryDy=0;fillColor=#ffe6cc;strokeColor=#d79b00;" edge="1" parent="1" source="_T7ckmJpyFO9h24dA1C--20" target="_T7ckmJpyFO9h24dA1C--22">
          <mxGeometry x="-320" y="-1050" as="geometry" />
        </mxCell>
        <mxCell id="_T7ckmJpyFO9h24dA1C--23" value="" style="edgeStyle=orthogonalEdgeStyle;rounded=0;orthogonalLoop=1;jettySize=auto;html=1;" edge="1" parent="1" source="_T7ckmJpyFO9h24dA1C--3" target="_T7ckmJpyFO9h24dA1C--22">
          <mxGeometry x="-320" y="-1050" as="geometry" />
        </mxCell>
        <mxCell id="_T7ckmJpyFO9h24dA1C--44" value="" style="edgeStyle=orthogonalEdgeStyle;rounded=0;orthogonalLoop=1;jettySize=auto;html=1;" edge="1" parent="1" source="_T7ckmJpyFO9h24dA1C--25" target="_T7ckmJpyFO9h24dA1C--43">
          <mxGeometry relative="1" as="geometry" />
        </mxCell>
        <mxCell id="_T7ckmJpyFO9h24dA1C--25" value="AbstractList" style="whiteSpace=wrap;html=1;rounded=1;fontStyle=0;strokeColor=#d79b00;fillColor=#ffe6cc;" vertex="1" parent="1">
          <mxGeometry x="160" y="-751" width="120" height="60" as="geometry" />
        </mxCell>
        <mxCell id="_T7ckmJpyFO9h24dA1C--26" value="" style="edgeStyle=orthogonalEdgeStyle;rounded=0;orthogonalLoop=1;jettySize=auto;html=1;" edge="1" parent="1" source="_T7ckmJpyFO9h24dA1C--8" target="_T7ckmJpyFO9h24dA1C--25">
          <mxGeometry x="-320" y="-1050" as="geometry" />
        </mxCell>
        <mxCell id="_T7ckmJpyFO9h24dA1C--47" value="" style="edgeStyle=orthogonalEdgeStyle;rounded=0;orthogonalLoop=1;jettySize=auto;html=1;fillColor=#f8cecc;strokeColor=#b85450;" edge="1" parent="1" source="_T7ckmJpyFO9h24dA1C--28" target="_T7ckmJpyFO9h24dA1C--46">
          <mxGeometry relative="1" as="geometry">
            <Array as="points">
              <mxPoint x="-260" y="-660" />
              <mxPoint x="-450" y="-660" />
            </Array>
          </mxGeometry>
        </mxCell>
        <mxCell id="_T7ckmJpyFO9h24dA1C--54" value="" style="edgeStyle=orthogonalEdgeStyle;rounded=0;orthogonalLoop=1;jettySize=auto;html=1;fillColor=#f8cecc;strokeColor=#b85450;" edge="1" parent="1" source="_T7ckmJpyFO9h24dA1C--28" target="_T7ckmJpyFO9h24dA1C--53">
          <mxGeometry relative="1" as="geometry" />
        </mxCell>
        <mxCell id="_T7ckmJpyFO9h24dA1C--28" value="AbstractQueue" style="whiteSpace=wrap;html=1;rounded=1;fontStyle=0;strokeColor=#d79b00;fillColor=#ffe6cc;" vertex="1" parent="1">
          <mxGeometry x="-320" y="-751" width="120" height="60" as="geometry" />
        </mxCell>
        <mxCell id="_T7ckmJpyFO9h24dA1C--33" style="edgeStyle=orthogonalEdgeStyle;rounded=0;orthogonalLoop=1;jettySize=auto;html=1;fillColor=#ffe6cc;strokeColor=#d79b00;" edge="1" parent="1" source="_T7ckmJpyFO9h24dA1C--20">
          <mxGeometry x="-320" y="-1050" as="geometry">
            <mxPoint x="-200" y="-721" as="targetPoint" />
            <Array as="points">
              <mxPoint x="60" y="-780" />
              <mxPoint x="-180" y="-780" />
              <mxPoint x="-180" y="-721" />
            </Array>
          </mxGeometry>
        </mxCell>
        <mxCell id="_T7ckmJpyFO9h24dA1C--2" value="Collections" style="rounded=1;whiteSpace=wrap;html=1;fillColor=#dae8fc;strokeColor=#6c8ebf;fontStyle=0" vertex="1" parent="1">
          <mxGeometry x="-80" y="-1050" width="120" height="60" as="geometry" />
        </mxCell>
        <mxCell id="_T7ckmJpyFO9h24dA1C--3" value="Set" style="whiteSpace=wrap;html=1;rounded=1;strokeColor=#6c8ebf;fillColor=#dae8fc;fontStyle=0" vertex="1" parent="1">
          <mxGeometry x="-160" y="-880" width="120" height="60" as="geometry" />
        </mxCell>
        <mxCell id="_T7ckmJpyFO9h24dA1C--4" value="" style="edgeStyle=orthogonalEdgeStyle;rounded=0;orthogonalLoop=1;jettySize=auto;html=1;fontStyle=4" edge="1" parent="1" source="_T7ckmJpyFO9h24dA1C--2" target="_T7ckmJpyFO9h24dA1C--3">
          <mxGeometry x="-160" y="-1010" as="geometry">
            <Array as="points">
              <mxPoint x="-20" y="-920" />
              <mxPoint x="-100" y="-920" />
            </Array>
          </mxGeometry>
        </mxCell>
        <mxCell id="_T7ckmJpyFO9h24dA1C--8" value="List" style="whiteSpace=wrap;html=1;rounded=1;strokeColor=#6c8ebf;fillColor=#dae8fc;fontStyle=0" vertex="1" parent="1">
          <mxGeometry x="160" y="-880" width="120" height="60" as="geometry" />
        </mxCell>
        <mxCell id="_T7ckmJpyFO9h24dA1C--10" value="" style="edgeStyle=orthogonalEdgeStyle;rounded=0;orthogonalLoop=1;jettySize=auto;html=1;fontStyle=4" edge="1" parent="1" source="_T7ckmJpyFO9h24dA1C--2" target="_T7ckmJpyFO9h24dA1C--8">
          <mxGeometry x="-160" y="-1010" as="geometry">
            <Array as="points">
              <mxPoint x="-20" y="-920" />
              <mxPoint x="220" y="-920" />
            </Array>
          </mxGeometry>
        </mxCell>
        <mxCell id="_T7ckmJpyFO9h24dA1C--32" value="" style="edgeStyle=orthogonalEdgeStyle;rounded=0;orthogonalLoop=1;jettySize=auto;html=1;" edge="1" parent="1" source="_T7ckmJpyFO9h24dA1C--11" target="_T7ckmJpyFO9h24dA1C--28">
          <mxGeometry x="-320" y="-1050" as="geometry" />
        </mxCell>
        <mxCell id="_T7ckmJpyFO9h24dA1C--11" value="Queue" style="whiteSpace=wrap;html=1;rounded=1;strokeColor=#6c8ebf;fillColor=#dae8fc;fontStyle=0" vertex="1" parent="1">
          <mxGeometry x="-320" y="-880" width="120" height="60" as="geometry" />
        </mxCell>
        <mxCell id="_T7ckmJpyFO9h24dA1C--12" value="" style="edgeStyle=orthogonalEdgeStyle;rounded=0;orthogonalLoop=1;jettySize=auto;html=1;fontStyle=4" edge="1" parent="1" source="_T7ckmJpyFO9h24dA1C--2" target="_T7ckmJpyFO9h24dA1C--11">
          <mxGeometry x="-160" y="-1010" as="geometry">
            <Array as="points">
              <mxPoint x="-20" y="-920" />
              <mxPoint x="-260" y="-920" />
            </Array>
          </mxGeometry>
        </mxCell>
        <mxCell id="_T7ckmJpyFO9h24dA1C--43" value="ArrayList" style="whiteSpace=wrap;html=1;rounded=1;fontStyle=0;strokeColor=#b85450;fillColor=#f8cecc;" vertex="1" parent="1">
          <mxGeometry x="160" y="-611" width="120" height="60" as="geometry" />
        </mxCell>
        <mxCell id="_T7ckmJpyFO9h24dA1C--46" value="SynchronousQueue" style="whiteSpace=wrap;html=1;rounded=1;fontStyle=0;strokeColor=#b85450;fillColor=#f8cecc;" vertex="1" parent="1">
          <mxGeometry x="-510" y="-611" width="120" height="60" as="geometry" />
        </mxCell>
        <mxCell id="_T7ckmJpyFO9h24dA1C--51" style="edgeStyle=orthogonalEdgeStyle;rounded=0;orthogonalLoop=1;jettySize=auto;html=1;exitX=0.5;exitY=1;exitDx=0;exitDy=0;fillColor=#f8cecc;strokeColor=#b85450;" edge="1" parent="1" source="_T7ckmJpyFO9h24dA1C--50">
          <mxGeometry relative="1" as="geometry">
            <mxPoint x="-450" y="-620" as="targetPoint" />
            <Array as="points">
              <mxPoint x="-450" y="-630" />
              <mxPoint x="-450" y="-630" />
            </Array>
          </mxGeometry>
        </mxCell>
        <mxCell id="_T7ckmJpyFO9h24dA1C--50" value="&lt;p class=&quot;p1&quot; style=&quot;margin: 0px ; font-stretch: normal ; font-size: 14px ; line-height: normal ; font-family: &amp;#34;helvetica neue&amp;#34; ; color: rgb(15 , 23 , 33)&quot;&gt;BlockingQueue&lt;/p&gt;" style="rounded=1;whiteSpace=wrap;html=1;fillColor=#dae8fc;strokeColor=#6c8ebf;" vertex="1" parent="1">
          <mxGeometry x="-510" y="-760" width="120" height="60" as="geometry" />
        </mxCell>
        <mxCell id="_T7ckmJpyFO9h24dA1C--53" value="&lt;p class=&quot;p1&quot; style=&quot;margin: 0px ; font-stretch: normal ; font-size: 14px ; line-height: normal ; font-family: &amp;#34;helvetica neue&amp;#34; ; color: rgb(15 , 23 , 33)&quot;&gt;ConcurrentLinkedQueue&lt;/p&gt;" style="whiteSpace=wrap;html=1;rounded=1;fontStyle=0;strokeColor=#b85450;fillColor=#f8cecc;" vertex="1" parent="1">
          <mxGeometry x="-340" y="-611" width="160" height="61" as="geometry" />
        </mxCell>
        <mxCell id="_T7ckmJpyFO9h24dA1C--55" value="&lt;p class=&quot;p1&quot; style=&quot;margin: 0px ; font-stretch: normal ; font-size: 14px ; line-height: normal ; font-family: &amp;#34;helvetica neue&amp;#34; ; color: rgb(15 , 23 , 33)&quot;&gt;HashSet&lt;/p&gt;" style="whiteSpace=wrap;html=1;rounded=1;fontStyle=0;strokeColor=#b85450;fillColor=#f8cecc;" vertex="1" parent="1">
          <mxGeometry x="10" y="-610" width="120" height="60" as="geometry" />
        </mxCell>
        <mxCell id="_T7ckmJpyFO9h24dA1C--58" value="&lt;p class=&quot;p1&quot; style=&quot;margin: 0px ; font-stretch: normal ; font-size: 14px ; line-height: normal ; font-family: &amp;#34;helvetica neue&amp;#34; ; color: rgb(15 , 23 , 33)&quot;&gt;TreeSet&lt;/p&gt;" style="rounded=1;whiteSpace=wrap;html=1;fillColor=#f8cecc;strokeColor=#b85450;" vertex="1" parent="1">
          <mxGeometry x="-160" y="-440" width="120" height="60" as="geometry" />
        </mxCell>
      </root>
    </mxGraphModel>
  </diagram>
</mxfile>
